<svg width="29" height="28" viewBox="0 0 29 28" fill="none" xmlns="http://www.w3.org/2000/svg">
<path d="M26.8444 26.5546L2 2M2 2H28M2 2V27.6967" stroke="black" stroke-width="3.46667"/>
<path d="M9.22431 17.1326C9.22431 18.0736 8.45147 18.8423 7.49097 18.8423C6.53047 18.8423 5.75764 18.0736 5.75764 17.1326C5.75764 16.1915 6.53047 15.4228 7.49097 15.4228C8.45147 15.4228 9.22431 16.1915 9.22431 17.1326Z" fill="black" stroke="black" stroke-width="0.577778"/>
<path d="M19.0446 8.5669C19.0446 9.50798 18.2718 10.2766 17.3113 10.2766C16.3508 10.2766 15.578 9.50798 15.578 8.5669C15.578 7.62582 16.3508 6.85716 17.3113 6.85716C18.2718 6.85716 19.0446 7.62582 19.0446 8.5669Z" fill="black" stroke="black" stroke-width="0.577778"/>
</svg>
